<svg width="81" height="83" viewBox="0 0 81 83" fill="none" xmlns="http://www.w3.org/2000/svg">
<path d="M8.46234 41.9746L8.12408 42.3152L8.46234 41.9746ZM35.6125 68.9414L35.9508 68.6008L35.6125 68.9414ZM60.013 79L60.013 79.48L60.013 79ZM80.6389 78.6606C80.8264 78.848 80.8264 79.1519 80.6389 79.3394L77.5842 82.3941C77.3968 82.5816 77.0929 82.5816 76.9054 82.3941C76.718 82.2066 76.718 81.9027 76.9054 81.7153L79.6207 79L76.9054 76.2847C76.718 76.0972 76.718 75.7933 76.9054 75.6059C77.0929 75.4184 77.3968 75.4184 77.5842 75.6059L80.6389 78.6606ZM8.46234 41.9746L8.80059 41.6341L35.9508 68.6008L35.6125 68.9414L35.2743 69.282L8.12408 42.3152L8.46234 41.9746ZM60.013 79L60.013 78.52L80.2995 78.52L80.2995 79L80.2995 79.48L60.013 79.48L60.013 79ZM35.6125 68.9414L35.9508 68.6008C42.3474 74.9543 50.9973 78.52 60.013 78.52L60.013 79L60.013 79.48C50.7438 79.48 41.8508 75.814 35.2743 69.282L35.6125 68.9414ZM21.7385 1.24008L21.8111 1.71455C2.73147 4.63493 -4.89405 28.0319 8.80059 41.6341L8.46234 41.9746L8.12408 42.3152C-6.12977 28.1576 1.80713 3.80524 21.6659 0.765601L21.7385 1.24008Z" fill="white"/>
</svg>
