<svg width="81" height="91" viewBox="0 0 81 91" fill="none" xmlns="http://www.w3.org/2000/svg">
<path d="M60.3986 62.2164L60.2055 61.7769L60.3986 62.2164ZM1.01259 87.9459C0.916407 88.1929 1.03869 88.4711 1.28572 88.5673L5.31133 90.1348C5.55835 90.231 5.8366 90.1087 5.93278 89.8616C6.02896 89.6146 5.90669 89.3364 5.65965 89.2402L2.08133 87.8469L3.47463 84.2686C3.57081 84.0215 3.44852 83.7433 3.2015 83.6471C2.95446 83.5509 2.67624 83.6732 2.58004 83.9203L1.01259 87.9459ZM60.3986 62.2164L60.2055 61.7769L1.26675 87.6806L1.45988 88.12L1.65301 88.5595L60.5917 62.6558L60.3986 62.2164ZM49.8965 0.893358L49.8606 1.37201C82.6627 3.83229 90.3196 48.5417 60.2055 61.7769L60.3986 62.2164L60.5917 62.6558C91.6213 49.0183 83.7317 2.94976 49.9324 0.414703L49.8965 0.893358Z" fill="white"/>
</svg>
