<svg width="34" height="75" viewBox="0 0 34 75" fill="none" xmlns="http://www.w3.org/2000/svg">
<path d="M20.1005 8.73008L19.8917 8.29788L20.1005 8.73008ZM32.9932 2.87799C33.0805 2.62766 32.9483 2.354 32.6979 2.26677L28.6185 0.845161C28.3682 0.757922 28.0946 0.890137 28.0073 1.14047C27.9201 1.3908 28.0523 1.66445 28.3026 1.75169L31.9288 3.01534L30.6651 6.64147C30.5779 6.8918 30.7101 7.16546 30.9604 7.25269C31.2107 7.33993 31.4844 7.20771 31.5716 6.95738L32.9932 2.87799ZM20.1005 8.73008L20.3094 9.16228L32.7488 3.15223L32.54 2.72004L32.3312 2.28784L19.8917 8.29788L20.1005 8.73008ZM32.54 74.2402L32.5758 73.7615C-2.13322 71.1616 -11.0308 24.3041 20.3094 9.16228L20.1005 8.73008L19.8917 8.29788C-12.3322 23.8667 -3.18375 72.0456 32.5041 74.7188L32.54 74.2402Z" fill="white"/>
</svg>
